<svg width="222" height="60" viewBox="0 0 328 89" xmlns="http://www.w3.org/2000/svg">
  <g fill="none" fill-rule="evenodd">
    <path d="M92.318 65.848V34.102H86v-5.694h6.318v-1.56c0-5.72 1.339-9.958 4.017-12.714C99.013 11.378 102.562 10 106.982 10c1.196 0 2.34.065 3.432.195s2.08.377 2.964.741l-.624 5.382c-1.508-.416-3.146-.624-4.914-.624-2.964 0-5.122.884-6.474 2.652-1.352 1.768-2.028 4.446-2.028 8.034v2.028h10.92v5.694h-10.92v31.746h-7.02zm41.474-4.68c-.572.676-1.274 1.339-2.106 1.989a16 16 0 0 1-2.847 1.755c-1.066.52-2.236.936-3.51 1.248a16.833 16.833 0 0 1-4.017.468c-1.56 0-2.99-.247-4.29-.741-1.3-.494-2.418-1.183-3.354-2.067-.936-.884-1.677-1.976-2.223-3.276-.546-1.3-.819-2.73-.819-4.29 0-3.432 1.209-6.032 3.627-7.8 2.418-1.768 5.655-2.782 9.711-3.042 1.664-.104 3.315-.182 4.953-.234 1.638-.052 3.211-.078 4.719-.078v-1.638c0-3.172-.676-5.655-2.028-7.449-1.352-1.794-3.588-2.691-6.708-2.691-1.82 0-3.549.234-5.187.702a22.583 22.583 0 0 0-4.719 1.95l-1.638-5.148c1.976-1.196 3.991-2.028 6.045-2.496 2.054-.468 4.303-.702 6.747-.702 4.42 0 7.943 1.352 10.569 4.056 2.626 2.704 3.939 6.578 3.939 11.622v22.542h-6.864v-4.68zm-10.452.312c2.028 0 3.926-.455 5.694-1.365a16.504 16.504 0 0 0 4.602-3.471v-6.942a430.8 430.8 0 0 0-4.368.312 106.93 106.93 0 0 0-4.056.39 18.535 18.535 0 0 0-3.081.546c-.962.26-1.794.611-2.496 1.053a4.705 4.705 0 0 0-1.638 1.716c-.39.702-.585 1.547-.585 2.535 0 1.768.52 3.081 1.56 3.939 1.04.858 2.496 1.287 4.368 1.287zm49.274-6.318c0 1.768-.377 3.354-1.131 4.758s-1.794 2.6-3.12 3.588-2.899 1.755-4.719 2.301c-1.82.546-3.796.819-5.928.819-.936 0-1.924-.052-2.964-.156a33.788 33.788 0 0 1-6.123-1.209c-.962-.286-1.781-.585-2.457-.897l1.17-5.538c1.352.572 2.899 1.092 4.641 1.56 1.742.468 3.679.702 5.811.702 2.236 0 4.121-.403 5.655-1.209 1.534-.806 2.301-2.093 2.301-3.861 0-.832-.208-1.573-.624-2.223a6.395 6.395 0 0 0-1.638-1.716 13.627 13.627 0 0 0-2.379-1.365c-.91-.416-1.859-.832-2.847-1.248a54.585 54.585 0 0 1-4.056-1.755 18.628 18.628 0 0 1-3.705-2.34 11.674 11.674 0 0 1-2.73-3.159c-.702-1.196-1.053-2.626-1.053-4.29 0-1.82.377-3.38 1.131-4.68a9.706 9.706 0 0 1 2.964-3.198c1.222-.832 2.639-1.443 4.251-1.833a21.154 21.154 0 0 1 4.992-.585c1.976 0 3.9.221 5.772.663 1.872.442 3.562 1.053 5.07 1.833l-1.17 5.304a23.162 23.162 0 0 0-4.719-1.677 21.314 21.314 0 0 0-4.953-.585c-1.82 0-3.354.312-4.602.936-1.248.624-1.872 1.768-1.872 3.432 0 .78.221 1.443.663 1.989.442.546 1.014 1.04 1.716 1.482.702.442 1.469.845 2.301 1.209.832.364 1.612.728 2.34 1.092.676.312 1.69.754 3.042 1.326a22.833 22.833 0 0 1 4.017 2.223 14.32 14.32 0 0 1 3.471 3.393c.988 1.352 1.482 2.99 1.482 4.914zm.68-26.754h6.708v-9.594h7.02v9.594h12.324v5.694h-12.324v19.11c0 1.092.078 2.119.234 3.081.156.962.442 1.781.858 2.457a4.425 4.425 0 0 0 1.716 1.599c.728.39 1.69.585 2.886.585 2.184 0 4.16-.338 5.928-1.014l.624 5.304c-.832.364-2.015.689-3.549.975a24.448 24.448 0 0 1-4.485.429c-2.028 0-3.744-.325-5.148-.975-1.404-.65-2.561-1.56-3.471-2.73-.91-1.17-1.573-2.561-1.989-4.173-.416-1.612-.624-3.38-.624-5.304V34.102h-6.708v-5.694zm37.886 27.768c0 1.508.299 2.665.897 3.471.598.806 1.625 1.209 3.081 1.209 1.144 0 2.314-.156 3.51-.468l.312 5.226c-1.716.572-3.614.858-5.694.858-3.276 0-5.616-.962-7.02-2.886-1.404-1.924-2.106-4.29-2.106-7.098V10.78h7.02v45.396zm32.738 4.992c-.572.676-1.274 1.339-2.106 1.989a16 16 0 0 1-2.847 1.755c-1.066.52-2.236.936-3.51 1.248a16.833 16.833 0 0 1-4.017.468c-1.56 0-2.99-.247-4.29-.741-1.3-.494-2.418-1.183-3.354-2.067-.936-.884-1.677-1.976-2.223-3.276-.546-1.3-.819-2.73-.819-4.29 0-3.432 1.209-6.032 3.627-7.8 2.418-1.768 5.655-2.782 9.711-3.042 1.664-.104 3.315-.182 4.953-.234 1.638-.052 3.211-.078 4.719-.078v-1.638c0-3.172-.676-5.655-2.028-7.449-1.352-1.794-3.588-2.691-6.708-2.691-1.82 0-3.549.234-5.187.702a22.583 22.583 0 0 0-4.719 1.95l-1.638-5.148c1.976-1.196 3.991-2.028 6.045-2.496 2.054-.468 4.303-.702 6.747-.702 4.42 0 7.943 1.352 10.569 4.056 2.626 2.704 3.939 6.578 3.939 11.622v22.542h-6.864v-4.68zm-10.452.312c2.028 0 3.926-.455 5.694-1.365a16.504 16.504 0 0 0 4.602-3.471v-6.942a430.8 430.8 0 0 0-4.368.312 106.93 106.93 0 0 0-4.056.39 18.535 18.535 0 0 0-3.081.546c-.962.26-1.794.611-2.496 1.053a4.705 4.705 0 0 0-1.638 1.716c-.39.702-.585 1.547-.585 2.535 0 1.768.52 3.081 1.56 3.939 1.04.858 2.496 1.287 4.368 1.287zm25.25 4.368v-37.44h6.708v5.46c1.404-1.976 3.094-3.51 5.07-4.602 1.976-1.092 4.264-1.638 6.864-1.638 2.34 0 4.342.494 6.006 1.482 1.664.988 3.042 2.327 4.134 4.017 1.092 1.69 1.885 3.653 2.379 5.889s.741 4.602.741 7.098v19.734h-7.02v-19.5c0-1.924-.156-3.679-.468-5.265-.312-1.586-.806-2.951-1.482-4.095-.676-1.144-1.56-2.041-2.652-2.691-1.092-.65-2.418-.975-3.978-.975-2.08 0-3.913.546-5.499 1.638-1.586 1.092-2.847 2.236-3.783 3.432v27.456h-7.02zm54.422-38.22c2.392 0 4.485.39 6.279 1.17 1.794.78 3.302 1.846 4.524 3.198 1.222 1.352 2.132 2.951 2.73 4.797.598 1.846.897 3.835.897 5.967 0 2.132-.26 4.238-.78 6.318h-23.634c.052 1.82.312 3.458.78 4.914.468 1.456 1.183 2.717 2.145 3.783.962 1.066 2.21 1.885 3.744 2.457 1.534.572 3.393.858 5.577.858 2.028 0 3.939-.208 5.733-.624a31.64 31.64 0 0 0 4.953-1.56l.936 5.226c-1.664.78-3.601 1.391-5.811 1.833-2.21.442-4.485.663-6.825.663-3.12 0-5.837-.507-8.151-1.521-2.314-1.014-4.225-2.392-5.733-4.134-1.508-1.742-2.639-3.783-3.393-6.123-.754-2.34-1.131-4.862-1.131-7.566 0-2.704.39-5.252 1.17-7.644.78-2.392 1.911-4.485 3.393-6.279a15.671 15.671 0 0 1 5.421-4.212c2.132-1.014 4.524-1.521 7.176-1.521zm-.234 5.226c-1.508 0-2.834.286-3.978.858a9.242 9.242 0 0 0-2.964 2.34c-.832.988-1.482 2.145-1.95 3.471a15.878 15.878 0 0 0-.858 4.173h17.628a15.91 15.91 0 0 0-.078-4.173c-.208-1.326-.624-2.483-1.248-3.471s-1.482-1.768-2.574-2.34c-1.092-.572-2.418-.858-3.978-.858zM71.544 29.206c-.732-1.37-2.227-2.236-3.864-2.236H45.87L57.144 5.855a3.823 3.823 0 0 0-.189-3.936C56.168.726 54.777 0 53.28 0H27.36c-1.637 0-3.132.866-3.864 2.236L.456 45.388a3.825 3.825 0 0 0 .189 3.936c.787 1.193 2.178 1.918 3.675 1.918h23.456l-7.52 32.865c-.425 1.857.587 3.742 2.434 4.529a4.564 4.564 0 0 0 1.788.364c1.327 0 2.621-.573 3.458-1.619l43.2-53.939c.982-1.225 1.14-2.866.408-4.236z" fill="#358189"/>
    <path d="M20.418 42l2.15-5M26.866 27l2.149-5M44.06 43l2.149-5M37.612 58l2.15-5M33.313 12l2.15-5" stroke="#FFF" stroke-width="4" stroke-linecap="round"/>
  </g>
</svg>
